<?xml version="1.0" encoding="utf-8"?>
<!-- Generator: Adobe Illustrator 15.1.0, SVG Export Plug-In . SVG Version: 6.00 Build 0)  -->
<!DOCTYPE svg PUBLIC "-//W3C//DTD SVG 1.1//EN" "http://www.w3.org/Graphics/SVG/1.1/DTD/svg11.dtd">
<svg version="1.1" id="Layer_1" xmlns:sketch="http://www.bohemiancoding.com/sketch/ns"
	 xmlns="http://www.w3.org/2000/svg" xmlns:xlink="http://www.w3.org/1999/xlink" x="0px" y="0px" width="24px" height="24px"
	 viewBox="0 0 24 24" enable-background="new 0 0 24 24" xml:space="preserve">
<title>editor_grid_view_block_outline_stroke</title>
<description>Created with Sketch.</description>
<g id="miu" sketch:type="MSPage">
	<g id="editor_grid_view_block_outline_stroke">
		<g sketch:type="MSShapeGroup">
			<path id="path-1" d="M4,4v7h7V4H4z M12.999,4v7H20V4H12.999z M14,5v5h5.001V5H14z M5,5v5h5V5H5z M4,13v7h7v-7H4z M12.999,13v7H20
				v-7H12.999z M14,14v5h5.001v-5H14z M5,14v5h5v-5H5z"/>
		</g>
		<g>
			<path id="path-1_1_" fill="none" d="M4,4v7h7V4H4z M12.999,4v7H20V4H12.999z M14,5v5h5.001V5H14z M5,5v5h5V5H5z M4,13v7h7v-7H4z
				 M12.999,13v7H20v-7H12.999z M14,14v5h5.001v-5H14z M5,14v5h5v-5H5z"/>
		</g>
	</g>
</g>
</svg>
