<?xml version="1.0" encoding="utf-8"?>
<!-- Generator: Adobe Illustrator 15.1.0, SVG Export Plug-In . SVG Version: 6.00 Build 0)  -->
<!DOCTYPE svg PUBLIC "-//W3C//DTD SVG 1.1//EN" "http://www.w3.org/Graphics/SVG/1.1/DTD/svg11.dtd">
<svg version="1.1" id="Layer_1" xmlns="http://www.w3.org/2000/svg" xmlns:xlink="http://www.w3.org/1999/xlink" x="0px" y="0px"
	 width="100px" height="100px" viewBox="-149.5 250.5 100 100" enable-background="new -149.5 250.5 100 100" xml:space="preserve">
<g>
	<path d="M-121.911,326.974l4.529,4.53h-21.011c-1.058,0-2.041-0.556-2.564-1.449c-0.507-0.868-0.507-1.945,0.001-2.814
		l15.481-26.467l-7.046-4.123l-15.482,26.467c-1.995,3.412-1.995,7.65,0.002,11.062c1.984,3.385,5.666,5.487,9.609,5.487h21.007
		l-4.524,4.525l5.772,5.771l14.379-14.378l-14.378-14.384L-121.911,326.974z"/>
	<path d="M-51.021,322.837l-10.604-18.144l6.196,1.626l2.07-7.896l-19.671-5.161l-5.161,19.673l7.895,2.073l1.625-6.189
		l10.599,18.134c0.533,0.917,0.55,2.048,0.048,2.941c-0.498,0.88-1.431,1.427-2.438,1.427l-30.657-0.011l-0.004,8.164l30.661,0.011
		c3.942,0,7.599-2.135,9.55-5.582C-48.99,330.485-49.033,326.246-51.021,322.837z"/>
	<path d="M-74.419,282.942l-15.458-26.484c-1.964-3.356-5.577-5.422-9.458-5.422c-0.059,0-0.117,0-0.176,0
		c-3.91,0.063-7.547,2.236-9.492,5.678l-10.32,18.311l-1.718-6.167l-7.865,2.19l5.458,19.59l19.597-5.469l-2.194-7.862l-6.162,1.72
		l10.312-18.301c0.524-0.923,1.487-1.508,2.515-1.525c0.016,0,0.029,0,0.045,0c0.99,0,1.912,0.528,2.41,1.38l15.455,26.478
		L-74.419,282.942z"/>
</g>
</svg>
